<svg width="546" height="95" viewBox="0 0 546 95" fill="none" xmlns="http://www.w3.org/2000/svg">
<path d="M531.873 47.8119C528.27 47.8119 525.311 47.0279 522.997 45.4599C520.701 43.8733 519.291 41.6613 518.769 38.8239L523.865 38.0119C524.275 39.6546 525.218 40.9613 526.693 41.9319C528.167 42.8839 529.997 43.3599 532.181 43.3599C534.253 43.3599 535.877 42.9306 537.053 42.0719C538.229 41.2133 538.817 40.0466 538.817 38.5719C538.817 37.7133 538.621 37.0226 538.229 36.4999C537.837 35.9586 537.025 35.4546 535.793 34.9879C534.579 34.5213 532.741 33.9613 530.277 33.3079C527.607 32.5986 525.507 31.8613 523.977 31.0959C522.446 30.3306 521.354 29.4439 520.701 28.4359C520.047 27.4279 519.721 26.2053 519.721 24.7679C519.721 22.9946 520.206 21.4453 521.177 20.1199C522.147 18.7759 523.501 17.7399 525.237 17.0119C526.991 16.2839 529.026 15.9199 531.341 15.9199C533.637 15.9199 535.69 16.2839 537.501 17.0119C539.311 17.7399 540.767 18.7759 541.869 20.1199C542.989 21.4453 543.651 22.9946 543.857 24.7679L538.761 25.6919C538.518 24.0679 537.734 22.7893 536.409 21.8559C535.102 20.9226 533.413 20.4279 531.341 20.3719C529.381 20.2973 527.785 20.6426 526.553 21.4079C525.339 22.1733 524.733 23.2093 524.733 24.5159C524.733 25.2439 524.957 25.8693 525.405 26.3919C525.871 26.9146 526.721 27.4093 527.953 27.8759C529.203 28.3426 531.014 28.8746 533.385 29.4719C536.054 30.1439 538.154 30.8813 539.685 31.6839C541.234 32.4679 542.335 33.4013 542.989 34.4839C543.642 35.5479 543.969 36.8639 543.969 38.4319C543.969 41.3439 542.895 43.6399 540.749 45.3199C538.602 46.9813 535.643 47.8119 531.873 47.8119Z" fill="#F17DB1"/>
<path d="M512.63 46.9999C510.838 47.3545 509.064 47.4945 507.31 47.4199C505.574 47.3639 504.024 47.0185 502.662 46.3839C501.299 45.7305 500.263 44.7225 499.554 43.3599C498.956 42.1652 498.63 40.9612 498.574 39.7479C498.536 38.5159 498.518 37.1252 498.518 35.5759V8.35986H503.502V35.3519C503.502 36.5839 503.511 37.6385 503.53 38.5159C503.567 39.3932 503.763 40.1492 504.118 40.7839C504.79 41.9785 505.854 42.6785 507.31 42.8839C508.784 43.0892 510.558 43.0332 512.63 42.7159V46.9999ZM492.386 20.8759V16.7599H512.63V20.8759H492.386Z" fill="#F17DB1"/>
<path d="M475.415 47.8399C472.354 47.8399 469.75 47.1586 467.603 45.7959C465.475 44.4146 463.851 42.5199 462.731 40.1119C461.611 37.7039 461.032 34.9599 460.995 31.8799C461.032 28.7253 461.62 25.9533 462.759 23.5639C463.916 21.1559 465.568 19.2799 467.715 17.9359C469.862 16.5919 472.447 15.9199 475.471 15.9199C478.663 15.9199 481.407 16.7039 483.703 18.2719C486.018 19.8399 487.567 21.9866 488.351 24.7119L483.423 26.1959C482.788 24.4413 481.752 23.0786 480.315 22.1079C478.896 21.1373 477.263 20.6519 475.415 20.6519C473.343 20.6519 471.635 21.1373 470.291 22.1079C468.947 23.0599 467.948 24.3853 467.295 26.0839C466.642 27.7639 466.306 29.6959 466.287 31.8799C466.324 35.2399 467.099 37.9559 468.611 40.0279C470.142 42.0813 472.41 43.1079 475.415 43.1079C477.394 43.1079 479.036 42.6599 480.343 41.7639C481.65 40.8493 482.639 39.5333 483.311 37.8159L488.351 39.1319C487.306 41.9506 485.672 44.1066 483.451 45.5999C481.23 47.0933 478.551 47.8399 475.415 47.8399Z" fill="#F17DB1"/>
<path d="M441.013 47.8399C438.045 47.8399 435.45 47.1866 433.229 45.8799C431.026 44.5546 429.309 42.7159 428.077 40.3639C426.845 37.9933 426.229 35.2306 426.229 32.0759C426.229 28.7719 426.835 25.9159 428.049 23.5079C429.262 21.0813 430.951 19.2146 433.117 17.9079C435.301 16.5826 437.858 15.9199 440.789 15.9199C443.831 15.9199 446.417 16.6199 448.545 18.0199C450.691 19.4199 452.297 21.4173 453.361 24.0119C454.443 26.6066 454.91 29.6959 454.761 33.2799H449.721V31.4879C449.665 27.7733 448.909 25.0013 447.453 23.1719C445.997 21.3239 443.831 20.3999 440.957 20.3999C437.877 20.3999 435.534 21.3893 433.929 23.3679C432.323 25.3466 431.521 28.1839 431.521 31.8799C431.521 35.4453 432.323 38.2079 433.929 40.1679C435.534 42.1279 437.821 43.1079 440.789 43.1079C442.786 43.1079 444.522 42.6506 445.997 41.7359C447.471 40.8213 448.629 39.5053 449.469 37.7879L454.257 39.4399C453.081 42.1093 451.307 44.1813 448.937 45.6559C446.585 47.1119 443.943 47.8399 441.013 47.8399ZM429.841 33.2799V29.2759H452.185V33.2799H429.841Z" fill="#F17DB1"/>
<path d="M421.348 46.9999C419.556 47.3545 417.782 47.4945 416.028 47.4199C414.292 47.3639 412.742 47.0185 411.38 46.3839C410.017 45.7305 408.981 44.7225 408.272 43.3599C407.674 42.1652 407.348 40.9612 407.292 39.7479C407.254 38.5159 407.236 37.1252 407.236 35.5759V8.35986H412.22V35.3519C412.22 36.5839 412.229 37.6385 412.248 38.5159C412.285 39.3932 412.481 40.1492 412.836 40.7839C413.508 41.9785 414.572 42.6785 416.028 42.8839C417.502 43.0892 419.276 43.0332 421.348 42.7159V46.9999ZM401.104 20.8759V16.7599H421.348V20.8759H401.104Z" fill="#F17DB1"/>
<path d="M389.398 11.412V6.26001H394.382V11.412H389.398ZM389.398 47V16.76H394.382V47H389.398Z" fill="#F17DB1"/>
<path d="M374.838 46.9999V31.8519C374.838 30.4146 374.708 29.0333 374.446 27.7079C374.204 26.3826 373.765 25.1973 373.13 24.1519C372.514 23.0879 371.674 22.2479 370.61 21.6319C369.565 21.0159 368.24 20.7079 366.634 20.7079C365.384 20.7079 364.245 20.9226 363.218 21.3519C362.21 21.7626 361.342 22.3973 360.614 23.2559C359.886 24.1146 359.317 25.1973 358.906 26.5039C358.514 27.7919 358.318 29.3133 358.318 31.0679L355.042 30.0599C355.042 27.1293 355.565 24.6186 356.61 22.5279C357.674 20.4186 359.158 18.8039 361.062 17.6839C362.985 16.5453 365.244 15.9759 367.838 15.9759C369.798 15.9759 371.469 16.2839 372.85 16.8999C374.232 17.5159 375.38 18.3373 376.294 19.3639C377.209 20.3719 377.928 21.5106 378.45 22.7799C378.973 24.0306 379.337 25.3093 379.542 26.6159C379.766 27.9039 379.878 29.1266 379.878 30.2839V46.9999H374.838ZM353.278 46.9999V6.67993H357.758V28.9399H358.318V46.9999H353.278Z" fill="#F17DB1"/>
<path d="M332.976 47.8399C329.914 47.8399 327.31 47.1586 325.164 45.7959C323.036 44.4146 321.412 42.5199 320.292 40.1119C319.172 37.7039 318.593 34.9599 318.556 31.8799C318.593 28.7253 319.181 25.9533 320.32 23.5639C321.477 21.1559 323.129 19.2799 325.276 17.9359C327.422 16.5919 330.008 15.9199 333.032 15.9199C336.224 15.9199 338.968 16.7039 341.264 18.2719C343.578 19.8399 345.128 21.9866 345.912 24.7119L340.984 26.1959C340.349 24.4413 339.313 23.0786 337.876 22.1079C336.457 21.1373 334.824 20.6519 332.976 20.6519C330.904 20.6519 329.196 21.1373 327.852 22.1079C326.508 23.0599 325.509 24.3853 324.856 26.0839C324.202 27.7639 323.866 29.6959 323.848 31.8799C323.885 35.2399 324.66 37.9559 326.172 40.0279C327.702 42.0813 329.97 43.1079 332.976 43.1079C334.954 43.1079 336.597 42.6599 337.904 41.7639C339.21 40.8493 340.2 39.5333 340.872 37.8159L345.912 39.1319C344.866 41.9506 343.233 44.1066 341.012 45.5999C338.79 47.0933 336.112 47.8399 332.976 47.8399Z" fill="#F17DB1"/>
<path d="M298.212 46.9998V16.7598H302.664V24.0678L301.936 23.1158C302.291 22.1825 302.748 21.3238 303.308 20.5398C303.887 19.7558 304.531 19.1118 305.24 18.6078C306.024 17.9731 306.911 17.4878 307.9 17.1518C308.889 16.8158 309.897 16.6198 310.924 16.5638C311.951 16.4891 312.912 16.5545 313.808 16.7598V21.4358C312.763 21.1558 311.615 21.0811 310.364 21.2118C309.113 21.3425 307.956 21.7998 306.892 22.5838C305.921 23.2745 305.165 24.1145 304.624 25.1038C304.101 26.0931 303.737 27.1665 303.532 28.3238C303.327 29.4625 303.224 30.6291 303.224 31.8238V46.9998H298.212Z" fill="#F17DB1"/>
<path d="M257.584 46.9999L271.08 6.67993H278.024L291.52 46.9999H286.34L273.712 9.59193H275.28L262.764 46.9999H257.584ZM264.08 37.5639V32.8879H285.024V37.5639H264.08Z" fill="#F17DB1"/>
<path d="M213.263 47V46.104L231.603 21.296H214.775V16.76H239.639V17.712L221.327 42.464H238.687V47H213.263Z" fill="#F17DB1"/>
<path d="M194.401 47.8399C191.433 47.8399 188.839 47.1866 186.617 45.8799C184.415 44.5546 182.697 42.7159 181.465 40.3639C180.233 37.9933 179.617 35.2306 179.617 32.0759C179.617 28.7719 180.224 25.9159 181.437 23.5079C182.651 21.0813 184.34 19.2146 186.505 17.9079C188.689 16.5826 191.247 15.9199 194.177 15.9199C197.22 15.9199 199.805 16.6199 201.933 18.0199C204.08 19.4199 205.685 21.4173 206.749 24.0119C207.832 26.6066 208.299 29.6959 208.149 33.2799H203.109V31.4879C203.053 27.7733 202.297 25.0013 200.841 23.1719C199.385 21.3239 197.22 20.3999 194.345 20.3999C191.265 20.3999 188.923 21.3893 187.317 23.3679C185.712 25.3466 184.909 28.1839 184.909 31.8799C184.909 35.4453 185.712 38.2079 187.317 40.1679C188.923 42.1279 191.209 43.1079 194.177 43.1079C196.175 43.1079 197.911 42.6506 199.385 41.7359C200.86 40.8213 202.017 39.5053 202.857 37.7879L207.645 39.4399C206.469 42.1093 204.696 44.1813 202.325 45.6559C199.973 47.1119 197.332 47.8399 194.401 47.8399ZM183.229 33.2799V29.2759H205.573V33.2799H183.229Z" fill="#F17DB1"/>
<path d="M167.571 46.9998V31.8518C167.571 30.4145 167.44 29.0332 167.179 27.7078C166.936 26.3825 166.497 25.1972 165.863 24.1518C165.247 23.0878 164.407 22.2478 163.343 21.6318C162.297 21.0158 160.972 20.7078 159.367 20.7078C158.116 20.7078 156.977 20.9225 155.951 21.3518C154.943 21.7625 154.075 22.3972 153.347 23.2558C152.619 24.1145 152.049 25.1972 151.639 26.5038C151.247 27.7918 151.051 29.3132 151.051 31.0678L147.775 30.0598C147.775 27.1292 148.297 24.6185 149.343 22.5278C150.407 20.4185 151.891 18.8038 153.795 17.6838C155.717 16.5452 157.976 15.9758 160.571 15.9758C162.531 15.9758 164.201 16.2838 165.583 16.8998C166.964 17.5158 168.112 18.3372 169.027 19.3638C169.941 20.3718 170.66 21.5105 171.183 22.7798C171.705 24.0305 172.069 25.3092 172.275 26.6158C172.499 27.9038 172.611 29.1265 172.611 30.2838V46.9998H167.571ZM146.011 46.9998V16.7598H150.491V24.8518H151.051V46.9998H146.011Z" fill="#F17DB1"/>
<path d="M135.594 12.1399H131.534L135.202 2.8999H139.262L135.594 12.1399ZM130.974 46.9999V16.7599H135.958V46.9999H130.974Z" fill="#F17DB1"/>
<path d="M122.594 46.9999C120.802 47.3545 119.028 47.4945 117.274 47.4199C115.538 47.3639 113.988 47.0185 112.626 46.3839C111.263 45.7305 110.227 44.7225 109.518 43.3599C108.92 42.1652 108.594 40.9612 108.538 39.7479C108.5 38.5159 108.482 37.1252 108.482 35.5759V8.35986H113.466V35.3519C113.466 36.5839 113.475 37.6385 113.494 38.5159C113.531 39.3932 113.727 40.1492 114.082 40.7839C114.754 41.9785 115.818 42.6785 117.274 42.8839C118.748 43.0892 120.522 43.0332 122.594 42.7159V46.9999ZM102.35 20.8759V16.7599H122.594V20.8759H102.35Z" fill="#F17DB1"/>
<path d="M83.1396 46.9998V16.7598H87.5917V24.0678L86.8636 23.1158C87.2183 22.1825 87.6756 21.3238 88.2356 20.5398C88.8143 19.7558 89.4583 19.1118 90.1676 18.6078C90.9516 17.9731 91.8383 17.4878 92.8277 17.1518C93.817 16.8158 94.825 16.6198 95.8517 16.5638C96.8783 16.4891 97.8396 16.5545 98.7356 16.7598V21.4358C97.6903 21.1558 96.5423 21.0811 95.2916 21.2118C94.041 21.3425 92.8836 21.7998 91.8196 22.5838C90.849 23.2745 90.093 24.1145 89.5517 25.1038C89.029 26.0931 88.665 27.1665 88.4596 28.3238C88.2543 29.4625 88.1516 30.6291 88.1516 31.8238V46.9998H83.1396Z" fill="#F17DB1"/>
<path d="M58.5553 47.8399C56.2966 47.8399 54.402 47.4293 52.8713 46.6079C51.3593 45.7679 50.2113 44.6666 49.4273 43.3039C48.662 41.9413 48.2793 40.4479 48.2793 38.8239C48.2793 37.2373 48.578 35.8653 49.1753 34.7079C49.7913 33.5319 50.65 32.5613 51.7513 31.7959C52.8526 31.0119 54.1686 30.3959 55.6993 29.9479C57.1366 29.5559 58.742 29.2199 60.5153 28.9399C62.3073 28.6413 64.118 28.3706 65.9473 28.1279C67.7766 27.8853 69.4846 27.6519 71.0713 27.4279L69.2793 28.4639C69.3353 25.7759 68.794 23.7879 67.6553 22.4999C66.5353 21.2119 64.594 20.5679 61.8313 20.5679C60.002 20.5679 58.3966 20.9879 57.0153 21.8279C55.6526 22.6493 54.6913 23.9933 54.1313 25.8599L49.3993 24.4319C50.1273 21.7813 51.5366 19.6999 53.6273 18.1879C55.718 16.6759 58.4713 15.9199 61.8873 15.9199C64.6313 15.9199 66.9833 16.4146 68.9433 17.4039C70.922 18.3746 72.3406 19.8493 73.1993 21.8279C73.6286 22.7613 73.8993 23.7786 74.0113 24.8799C74.1233 25.9626 74.1793 27.1013 74.1793 28.2959V46.9999H69.7553V39.7479L70.7913 40.4199C69.6526 42.8653 68.0566 44.7133 66.0033 45.9639C63.9686 47.2146 61.486 47.8399 58.5553 47.8399ZM59.3113 43.6679C61.1033 43.6679 62.6526 43.3506 63.9593 42.7159C65.2846 42.0626 66.3486 41.2133 67.1513 40.1679C67.954 39.1039 68.4766 37.9466 68.7193 36.6959C68.9993 35.7626 69.1486 34.7266 69.1673 33.5879C69.2046 32.4306 69.2233 31.5439 69.2233 30.9279L70.9593 31.6839C69.3353 31.9079 67.7393 32.1226 66.1713 32.3279C64.6033 32.5333 63.1193 32.7573 61.7193 32.9999C60.3193 33.2239 59.0593 33.4946 57.9393 33.8119C57.118 34.0733 56.3433 34.4093 55.6153 34.8199C54.906 35.2306 54.3273 35.7626 53.8793 36.4159C53.45 37.0506 53.2353 37.8439 53.2353 38.7959C53.2353 39.6173 53.4406 40.4013 53.8513 41.1479C54.2806 41.8946 54.934 42.5013 55.8113 42.9679C56.7073 43.4346 57.874 43.6679 59.3113 43.6679Z" fill="#F17DB1"/>
<path d="M0.919922 46.9999V6.67993H5.45592L20.6879 38.7959L35.8359 6.67993H40.4279V46.9719H35.6959V17.6279L22.0039 46.9999H19.3439L5.65192 17.6279V46.9999H0.919922Z" fill="#F17DB1"/>
<path d="M530.495 94.0001V83.3801L521.675 68.0801H526.733L532.691 78.4121L538.631 68.0801H543.689L534.887 83.3801V94.0001H530.495Z" fill="#F17DB1"/>
<path d="M475.821 94.0001V72.1481H467.433V68.0801H488.547V72.1481H480.159V94.0001H475.821Z" fill="#F17DB1"/>
<path d="M428.183 94.0001V68.0801H432.521V94.0001H428.183Z" fill="#F17DB1"/>
<path d="M380.527 94.54C377.935 94.54 375.715 93.976 373.867 92.848C372.019 91.708 370.597 90.124 369.601 88.096C368.617 86.068 368.125 83.716 368.125 81.04C368.125 78.364 368.617 76.012 369.601 73.984C370.597 71.956 372.019 70.378 373.867 69.25C375.715 68.11 377.935 67.54 380.527 67.54C383.515 67.54 386.005 68.29 387.997 69.79C389.989 71.278 391.387 73.288 392.191 75.82L387.817 77.026C387.313 75.334 386.455 74.014 385.243 73.066C384.031 72.106 382.459 71.626 380.527 71.626C378.787 71.626 377.335 72.016 376.171 72.796C375.019 73.576 374.149 74.674 373.561 76.09C372.985 77.494 372.691 79.144 372.679 81.04C372.679 82.936 372.967 84.592 373.543 86.008C374.131 87.412 375.007 88.504 376.171 89.284C377.335 90.064 378.787 90.454 380.527 90.454C382.459 90.454 384.031 89.974 385.243 89.014C386.455 88.054 387.313 86.734 387.817 85.054L392.191 86.26C391.387 88.792 389.989 90.808 387.997 92.308C386.005 93.796 383.515 94.54 380.527 94.54Z" fill="#F17DB1"/>
<path d="M282.995 94.54C280.403 94.54 278.183 93.976 276.335 92.848C274.487 91.708 273.065 90.124 272.069 88.096C271.085 86.068 270.593 83.716 270.593 81.04C270.593 78.364 271.085 76.012 272.069 73.984C273.065 71.956 274.487 70.378 276.335 69.25C278.183 68.11 280.403 67.54 282.995 67.54C285.587 67.54 287.807 68.11 289.655 69.25C291.515 70.378 292.937 71.956 293.921 73.984C294.917 76.012 295.415 78.364 295.415 81.04C295.415 83.716 294.917 86.068 293.921 88.096C292.937 90.124 291.515 91.708 289.655 92.848C287.807 93.976 285.587 94.54 282.995 94.54ZM282.995 90.454C284.735 90.466 286.181 90.082 287.333 89.302C288.497 88.522 289.367 87.424 289.943 86.008C290.531 84.592 290.825 82.936 290.825 81.04C290.825 79.144 290.531 77.5 289.943 76.108C289.367 74.704 288.497 73.612 287.333 72.832C286.181 72.052 284.735 71.65 282.995 71.626C281.255 71.614 279.809 71.998 278.657 72.778C277.505 73.558 276.635 74.656 276.047 76.072C275.471 77.488 275.183 79.144 275.183 81.04C275.183 82.936 275.471 84.586 276.047 85.99C276.623 87.382 277.487 88.468 278.639 89.248C279.803 90.028 281.255 90.43 282.995 90.454Z" fill="#F17DB1"/>
<path d="M224.737 94.54C222.145 94.54 219.925 93.976 218.077 92.848C216.229 91.708 214.807 90.124 213.811 88.096C212.827 86.068 212.335 83.716 212.335 81.04C212.335 78.364 212.827 76.012 213.811 73.984C214.807 71.956 216.229 70.378 218.077 69.25C219.925 68.11 222.145 67.54 224.737 67.54C227.725 67.54 230.215 68.29 232.207 69.79C234.199 71.278 235.597 73.288 236.401 75.82L232.027 77.026C231.523 75.334 230.665 74.014 229.453 73.066C228.241 72.106 226.669 71.626 224.737 71.626C222.997 71.626 221.545 72.016 220.381 72.796C219.229 73.576 218.359 74.674 217.771 76.09C217.195 77.494 216.901 79.144 216.889 81.04C216.889 82.936 217.177 84.592 217.753 86.008C218.341 87.412 219.217 88.504 220.381 89.284C221.545 90.064 222.997 90.454 224.737 90.454C226.669 90.454 228.241 89.974 229.453 89.014C230.665 88.054 231.523 86.734 232.027 85.054L236.401 86.26C235.597 88.792 234.199 90.808 232.207 92.308C230.215 93.796 227.725 94.54 224.737 94.54Z" fill="#F17DB1"/>
<path d="M172.365 94.0001V68.0801H176.703V94.0001H172.365Z" fill="#F17DB1"/>
<path d="M114.575 94.0001L123.359 80.8961L114.827 68.0801H120.137L126.041 77.2061L131.891 68.0801H137.237L128.705 80.8961L137.453 94.0001H132.143L126.041 84.5861L119.921 94.0001H114.575Z" fill="#F17DB1"/>
<path d="M63.9961 94.0001V68.0801H80.7361V72.1481H68.3341V78.5381H78.5761V82.6061H68.3341V89.9321H80.7361V94.0001H63.9961Z" fill="#F17DB1"/>
<path d="M1.51953 94.0001V68.0801H5.42553L14.3895 86.4401L23.3535 68.0801H27.2595V94.0001H23.2095V77.3861L15.2535 94.0001H13.5255L5.58753 77.3861V94.0001H1.51953Z" fill="#F17DB1"/>
<path d="M533.873 45.8119C530.27 45.8119 527.311 45.0279 524.997 43.4599C522.701 41.8733 521.291 39.6613 520.769 36.8239L525.865 36.0119C526.275 37.6546 527.218 38.9613 528.693 39.9319C530.167 40.8839 531.997 41.3599 534.181 41.3599C536.253 41.3599 537.877 40.9306 539.053 40.0719C540.229 39.2133 540.817 38.0466 540.817 36.5719C540.817 35.7133 540.621 35.0226 540.229 34.4999C539.837 33.9586 539.025 33.4546 537.793 32.9879C536.579 32.5213 534.741 31.9613 532.277 31.3079C529.607 30.5986 527.507 29.8613 525.977 29.0959C524.446 28.3306 523.354 27.4439 522.701 26.4359C522.047 25.4279 521.721 24.2053 521.721 22.7679C521.721 20.9946 522.206 19.4453 523.177 18.1199C524.147 16.7759 525.501 15.7399 527.237 15.0119C528.991 14.2839 531.026 13.9199 533.341 13.9199C535.637 13.9199 537.69 14.2839 539.501 15.0119C541.311 15.7399 542.767 16.7759 543.869 18.1199C544.989 19.4453 545.651 20.9946 545.857 22.7679L540.761 23.6919C540.518 22.0679 539.734 20.7893 538.409 19.8559C537.102 18.9226 535.413 18.4279 533.341 18.3719C531.381 18.2973 529.785 18.6426 528.553 19.4079C527.339 20.1733 526.733 21.2093 526.733 22.5159C526.733 23.2439 526.957 23.8693 527.405 24.3919C527.871 24.9146 528.721 25.4093 529.953 25.8759C531.203 26.3426 533.014 26.8746 535.385 27.4719C538.054 28.1439 540.154 28.8813 541.685 29.6839C543.234 30.4679 544.335 31.4013 544.989 32.4839C545.642 33.5479 545.969 34.8639 545.969 36.4319C545.969 39.3439 544.895 41.6399 542.749 43.3199C540.602 44.9813 537.643 45.8119 533.873 45.8119Z" fill="white"/>
<path d="M514.63 44.9999C512.838 45.3545 511.064 45.4945 509.31 45.4199C507.574 45.3639 506.024 45.0185 504.662 44.3839C503.299 43.7305 502.263 42.7225 501.554 41.3599C500.956 40.1652 500.63 38.9612 500.574 37.7479C500.536 36.5159 500.518 35.1252 500.518 33.5759V6.35986H505.502V33.3519C505.502 34.5839 505.511 35.6385 505.53 36.5159C505.567 37.3932 505.763 38.1492 506.118 38.7839C506.79 39.9785 507.854 40.6785 509.31 40.8839C510.784 41.0892 512.558 41.0332 514.63 40.7159V44.9999ZM494.386 18.8759V14.7599H514.63V18.8759H494.386Z" fill="white"/>
<path d="M477.415 45.8399C474.354 45.8399 471.75 45.1586 469.603 43.7959C467.475 42.4146 465.851 40.5199 464.731 38.1119C463.611 35.7039 463.032 32.9599 462.995 29.8799C463.032 26.7253 463.62 23.9533 464.759 21.5639C465.916 19.1559 467.568 17.2799 469.715 15.9359C471.862 14.5919 474.447 13.9199 477.471 13.9199C480.663 13.9199 483.407 14.7039 485.703 16.2719C488.018 17.8399 489.567 19.9866 490.351 22.7119L485.423 24.1959C484.788 22.4413 483.752 21.0786 482.315 20.1079C480.896 19.1373 479.263 18.6519 477.415 18.6519C475.343 18.6519 473.635 19.1373 472.291 20.1079C470.947 21.0599 469.948 22.3853 469.295 24.0839C468.642 25.7639 468.306 27.6959 468.287 29.8799C468.324 33.2399 469.099 35.9559 470.611 38.0279C472.142 40.0813 474.41 41.1079 477.415 41.1079C479.394 41.1079 481.036 40.6599 482.343 39.7639C483.65 38.8493 484.639 37.5333 485.311 35.8159L490.351 37.1319C489.306 39.9506 487.672 42.1066 485.451 43.5999C483.23 45.0933 480.551 45.8399 477.415 45.8399Z" fill="white"/>
<path d="M443.013 45.8399C440.045 45.8399 437.45 45.1866 435.229 43.8799C433.026 42.5546 431.309 40.7159 430.077 38.3639C428.845 35.9933 428.229 33.2306 428.229 30.0759C428.229 26.7719 428.835 23.9159 430.049 21.5079C431.262 19.0813 432.951 17.2146 435.117 15.9079C437.301 14.5826 439.858 13.9199 442.789 13.9199C445.831 13.9199 448.417 14.6199 450.545 16.0199C452.691 17.4199 454.297 19.4173 455.361 22.0119C456.443 24.6066 456.91 27.6959 456.761 31.2799H451.721V29.4879C451.665 25.7733 450.909 23.0013 449.453 21.1719C447.997 19.3239 445.831 18.3999 442.957 18.3999C439.877 18.3999 437.534 19.3893 435.929 21.3679C434.323 23.3466 433.521 26.1839 433.521 29.8799C433.521 33.4453 434.323 36.2079 435.929 38.1679C437.534 40.1279 439.821 41.1079 442.789 41.1079C444.786 41.1079 446.522 40.6506 447.997 39.7359C449.471 38.8213 450.629 37.5053 451.469 35.7879L456.257 37.4399C455.081 40.1093 453.307 42.1813 450.937 43.6559C448.585 45.1119 445.943 45.8399 443.013 45.8399ZM431.841 31.2799V27.2759H454.185V31.2799H431.841Z" fill="white"/>
<path d="M423.348 44.9999C421.556 45.3545 419.782 45.4945 418.028 45.4199C416.292 45.3639 414.742 45.0185 413.38 44.3839C412.017 43.7305 410.981 42.7225 410.272 41.3599C409.674 40.1652 409.348 38.9612 409.292 37.7479C409.254 36.5159 409.236 35.1252 409.236 33.5759V6.35986H414.22V33.3519C414.22 34.5839 414.229 35.6385 414.248 36.5159C414.285 37.3932 414.481 38.1492 414.836 38.7839C415.508 39.9785 416.572 40.6785 418.028 40.8839C419.502 41.0892 421.276 41.0332 423.348 40.7159V44.9999ZM403.104 18.8759V14.7599H423.348V18.8759H403.104Z" fill="white"/>
<path d="M391.398 9.41201V4.26001H396.382V9.41201H391.398ZM391.398 45V14.76H396.382V45H391.398Z" fill="white"/>
<path d="M376.838 44.9999V29.8519C376.838 28.4146 376.708 27.0333 376.446 25.7079C376.204 24.3826 375.765 23.1973 375.13 22.1519C374.514 21.0879 373.674 20.2479 372.61 19.6319C371.565 19.0159 370.24 18.7079 368.634 18.7079C367.384 18.7079 366.245 18.9226 365.218 19.3519C364.21 19.7626 363.342 20.3973 362.614 21.2559C361.886 22.1146 361.317 23.1973 360.906 24.5039C360.514 25.7919 360.318 27.3133 360.318 29.0679L357.042 28.0599C357.042 25.1293 357.565 22.6186 358.61 20.5279C359.674 18.4186 361.158 16.8039 363.062 15.6839C364.985 14.5453 367.244 13.9759 369.838 13.9759C371.798 13.9759 373.469 14.2839 374.85 14.8999C376.232 15.5159 377.38 16.3373 378.294 17.3639C379.209 18.3719 379.928 19.5106 380.45 20.7799C380.973 22.0306 381.337 23.3093 381.542 24.6159C381.766 25.9039 381.878 27.1266 381.878 28.2839V44.9999H376.838ZM355.278 44.9999V4.67993H359.758V26.9399H360.318V44.9999H355.278Z" fill="white"/>
<path d="M334.976 45.8399C331.914 45.8399 329.31 45.1586 327.164 43.7959C325.036 42.4146 323.412 40.5199 322.292 38.1119C321.172 35.7039 320.593 32.9599 320.556 29.8799C320.593 26.7253 321.181 23.9533 322.32 21.5639C323.477 19.1559 325.129 17.2799 327.276 15.9359C329.422 14.5919 332.008 13.9199 335.032 13.9199C338.224 13.9199 340.968 14.7039 343.264 16.2719C345.578 17.8399 347.128 19.9866 347.912 22.7119L342.984 24.1959C342.349 22.4413 341.313 21.0786 339.876 20.1079C338.457 19.1373 336.824 18.6519 334.976 18.6519C332.904 18.6519 331.196 19.1373 329.852 20.1079C328.508 21.0599 327.509 22.3853 326.856 24.0839C326.202 25.7639 325.866 27.6959 325.848 29.8799C325.885 33.2399 326.66 35.9559 328.172 38.0279C329.702 40.0813 331.97 41.1079 334.976 41.1079C336.954 41.1079 338.597 40.6599 339.904 39.7639C341.21 38.8493 342.2 37.5333 342.872 35.8159L347.912 37.1319C346.866 39.9506 345.233 42.1066 343.012 43.5999C340.79 45.0933 338.112 45.8399 334.976 45.8399Z" fill="white"/>
<path d="M300.212 44.9998V14.7598H304.664V22.0678L303.936 21.1158C304.291 20.1825 304.748 19.3238 305.308 18.5398C305.887 17.7558 306.531 17.1118 307.24 16.6078C308.024 15.9731 308.911 15.4878 309.9 15.1518C310.889 14.8158 311.897 14.6198 312.924 14.5638C313.951 14.4891 314.912 14.5545 315.808 14.7598V19.4358C314.763 19.1558 313.615 19.0811 312.364 19.2118C311.113 19.3425 309.956 19.7998 308.892 20.5838C307.921 21.2745 307.165 22.1145 306.624 23.1038C306.101 24.0931 305.737 25.1665 305.532 26.3238C305.327 27.4625 305.224 28.6291 305.224 29.8238V44.9998H300.212Z" fill="white"/>
<path d="M259.584 44.9999L273.08 4.67993H280.024L293.52 44.9999H288.34L275.712 7.59193H277.28L264.764 44.9999H259.584ZM266.08 35.5639V30.8879H287.024V35.5639H266.08Z" fill="white"/>
<path d="M215.263 45V44.104L233.603 19.296H216.775V14.76H241.639V15.712L223.327 40.464H240.687V45H215.263Z" fill="white"/>
<path d="M196.401 45.8399C193.433 45.8399 190.839 45.1866 188.617 43.8799C186.415 42.5546 184.697 40.7159 183.465 38.3639C182.233 35.9933 181.617 33.2306 181.617 30.0759C181.617 26.7719 182.224 23.9159 183.437 21.5079C184.651 19.0813 186.34 17.2146 188.505 15.9079C190.689 14.5826 193.247 13.9199 196.177 13.9199C199.22 13.9199 201.805 14.6199 203.933 16.0199C206.08 17.4199 207.685 19.4173 208.749 22.0119C209.832 24.6066 210.299 27.6959 210.149 31.2799H205.109V29.4879C205.053 25.7733 204.297 23.0013 202.841 21.1719C201.385 19.3239 199.22 18.3999 196.345 18.3999C193.265 18.3999 190.923 19.3893 189.317 21.3679C187.712 23.3466 186.909 26.1839 186.909 29.8799C186.909 33.4453 187.712 36.2079 189.317 38.1679C190.923 40.1279 193.209 41.1079 196.177 41.1079C198.175 41.1079 199.911 40.6506 201.385 39.7359C202.86 38.8213 204.017 37.5053 204.857 35.7879L209.645 37.4399C208.469 40.1093 206.696 42.1813 204.325 43.6559C201.973 45.1119 199.332 45.8399 196.401 45.8399ZM185.229 31.2799V27.2759H207.573V31.2799H185.229Z" fill="white"/>
<path d="M169.571 44.9998V29.8518C169.571 28.4145 169.44 27.0332 169.179 25.7078C168.936 24.3825 168.497 23.1972 167.863 22.1518C167.247 21.0878 166.407 20.2478 165.343 19.6318C164.297 19.0158 162.972 18.7078 161.367 18.7078C160.116 18.7078 158.977 18.9225 157.951 19.3518C156.943 19.7625 156.075 20.3972 155.347 21.2558C154.619 22.1145 154.049 23.1972 153.639 24.5038C153.247 25.7918 153.051 27.3132 153.051 29.0678L149.775 28.0598C149.775 25.1292 150.297 22.6185 151.343 20.5278C152.407 18.4185 153.891 16.8038 155.795 15.6838C157.717 14.5452 159.976 13.9758 162.571 13.9758C164.531 13.9758 166.201 14.2838 167.583 14.8998C168.964 15.5158 170.112 16.3372 171.027 17.3638C171.941 18.3718 172.66 19.5105 173.183 20.7798C173.705 22.0305 174.069 23.3092 174.275 24.6158C174.499 25.9038 174.611 27.1265 174.611 28.2838V44.9998H169.571ZM148.011 44.9998V14.7598H152.491V22.8518H153.051V44.9998H148.011Z" fill="white"/>
<path d="M137.594 10.1399H133.534L137.202 0.899902H141.262L137.594 10.1399ZM132.974 44.9999V14.7599H137.958V44.9999H132.974Z" fill="white"/>
<path d="M124.594 44.9999C122.802 45.3545 121.028 45.4945 119.274 45.4199C117.538 45.3639 115.988 45.0185 114.626 44.3839C113.263 43.7305 112.227 42.7225 111.518 41.3599C110.92 40.1652 110.594 38.9612 110.538 37.7479C110.5 36.5159 110.482 35.1252 110.482 33.5759V6.35986H115.466V33.3519C115.466 34.5839 115.475 35.6385 115.494 36.5159C115.531 37.3932 115.727 38.1492 116.082 38.7839C116.754 39.9785 117.818 40.6785 119.274 40.8839C120.748 41.0892 122.522 41.0332 124.594 40.7159V44.9999ZM104.35 18.8759V14.7599H124.594V18.8759H104.35Z" fill="white"/>
<path d="M85.1396 44.9998V14.7598H89.5917V22.0678L88.8636 21.1158C89.2183 20.1825 89.6756 19.3238 90.2356 18.5398C90.8143 17.7558 91.4583 17.1118 92.1676 16.6078C92.9516 15.9731 93.8383 15.4878 94.8277 15.1518C95.817 14.8158 96.825 14.6198 97.8517 14.5638C98.8783 14.4891 99.8396 14.5545 100.736 14.7598V19.4358C99.6903 19.1558 98.5423 19.0811 97.2916 19.2118C96.041 19.3425 94.8836 19.7998 93.8196 20.5838C92.849 21.2745 92.093 22.1145 91.5517 23.1038C91.029 24.0931 90.665 25.1665 90.4596 26.3238C90.2543 27.4625 90.1516 28.6291 90.1516 29.8238V44.9998H85.1396Z" fill="white"/>
<path d="M60.5553 45.8399C58.2966 45.8399 56.402 45.4293 54.8713 44.6079C53.3593 43.7679 52.2113 42.6666 51.4273 41.3039C50.662 39.9413 50.2793 38.4479 50.2793 36.8239C50.2793 35.2373 50.578 33.8653 51.1753 32.7079C51.7913 31.5319 52.65 30.5613 53.7513 29.7959C54.8526 29.0119 56.1686 28.3959 57.6993 27.9479C59.1366 27.5559 60.742 27.2199 62.5153 26.9399C64.3073 26.6413 66.118 26.3706 67.9473 26.1279C69.7766 25.8853 71.4846 25.6519 73.0713 25.4279L71.2793 26.4639C71.3353 23.7759 70.794 21.7879 69.6553 20.4999C68.5353 19.2119 66.594 18.5679 63.8313 18.5679C62.002 18.5679 60.3966 18.9879 59.0153 19.8279C57.6526 20.6493 56.6913 21.9933 56.1313 23.8599L51.3993 22.4319C52.1273 19.7813 53.5366 17.6999 55.6273 16.1879C57.718 14.6759 60.4713 13.9199 63.8873 13.9199C66.6313 13.9199 68.9833 14.4146 70.9433 15.4039C72.922 16.3746 74.3406 17.8493 75.1993 19.8279C75.6286 20.7613 75.8993 21.7786 76.0113 22.8799C76.1233 23.9626 76.1793 25.1013 76.1793 26.2959V44.9999H71.7553V37.7479L72.7913 38.4199C71.6526 40.8653 70.0566 42.7133 68.0033 43.9639C65.9686 45.2146 63.486 45.8399 60.5553 45.8399ZM61.3113 41.6679C63.1033 41.6679 64.6526 41.3506 65.9593 40.7159C67.2846 40.0626 68.3486 39.2133 69.1513 38.1679C69.954 37.1039 70.4766 35.9466 70.7193 34.6959C70.9993 33.7626 71.1486 32.7266 71.1673 31.5879C71.2046 30.4306 71.2233 29.5439 71.2233 28.9279L72.9593 29.6839C71.3353 29.9079 69.7393 30.1226 68.1713 30.3279C66.6033 30.5333 65.1193 30.7573 63.7193 30.9999C62.3193 31.2239 61.0593 31.4946 59.9393 31.8119C59.118 32.0733 58.3433 32.4093 57.6153 32.8199C56.906 33.2306 56.3273 33.7626 55.8793 34.4159C55.45 35.0506 55.2353 35.8439 55.2353 36.7959C55.2353 37.6173 55.4406 38.4013 55.8513 39.1479C56.2806 39.8946 56.934 40.5013 57.8113 40.9679C58.7073 41.4346 59.874 41.6679 61.3113 41.6679Z" fill="white"/>
<path d="M2.91992 44.9999V4.67993H7.45592L22.6879 36.7959L37.8359 4.67993H42.4279V44.9719H37.6959V15.6279L24.0039 44.9999H21.3439L7.65192 15.6279V44.9999H2.91992Z" fill="white"/>
<path d="M532.495 92.0001V81.3801L523.675 66.0801H528.733L534.691 76.4121L540.631 66.0801H545.689L536.887 81.3801V92.0001H532.495Z" fill="white"/>
<path d="M477.821 92.0001V70.1481H469.433V66.0801H490.547V70.1481H482.159V92.0001H477.821Z" fill="white"/>
<path d="M430.183 92.0001V66.0801H434.521V92.0001H430.183Z" fill="white"/>
<path d="M382.527 92.54C379.935 92.54 377.715 91.976 375.867 90.848C374.019 89.708 372.597 88.124 371.601 86.096C370.617 84.068 370.125 81.716 370.125 79.04C370.125 76.364 370.617 74.012 371.601 71.984C372.597 69.956 374.019 68.378 375.867 67.25C377.715 66.11 379.935 65.54 382.527 65.54C385.515 65.54 388.005 66.29 389.997 67.79C391.989 69.278 393.387 71.288 394.191 73.82L389.817 75.026C389.313 73.334 388.455 72.014 387.243 71.066C386.031 70.106 384.459 69.626 382.527 69.626C380.787 69.626 379.335 70.016 378.171 70.796C377.019 71.576 376.149 72.674 375.561 74.09C374.985 75.494 374.691 77.144 374.679 79.04C374.679 80.936 374.967 82.592 375.543 84.008C376.131 85.412 377.007 86.504 378.171 87.284C379.335 88.064 380.787 88.454 382.527 88.454C384.459 88.454 386.031 87.974 387.243 87.014C388.455 86.054 389.313 84.734 389.817 83.054L394.191 84.26C393.387 86.792 391.989 88.808 389.997 90.308C388.005 91.796 385.515 92.54 382.527 92.54Z" fill="white"/>
<path d="M284.995 92.54C282.403 92.54 280.183 91.976 278.335 90.848C276.487 89.708 275.065 88.124 274.069 86.096C273.085 84.068 272.593 81.716 272.593 79.04C272.593 76.364 273.085 74.012 274.069 71.984C275.065 69.956 276.487 68.378 278.335 67.25C280.183 66.11 282.403 65.54 284.995 65.54C287.587 65.54 289.807 66.11 291.655 67.25C293.515 68.378 294.937 69.956 295.921 71.984C296.917 74.012 297.415 76.364 297.415 79.04C297.415 81.716 296.917 84.068 295.921 86.096C294.937 88.124 293.515 89.708 291.655 90.848C289.807 91.976 287.587 92.54 284.995 92.54ZM284.995 88.454C286.735 88.466 288.181 88.082 289.333 87.302C290.497 86.522 291.367 85.424 291.943 84.008C292.531 82.592 292.825 80.936 292.825 79.04C292.825 77.144 292.531 75.5 291.943 74.108C291.367 72.704 290.497 71.612 289.333 70.832C288.181 70.052 286.735 69.65 284.995 69.626C283.255 69.614 281.809 69.998 280.657 70.778C279.505 71.558 278.635 72.656 278.047 74.072C277.471 75.488 277.183 77.144 277.183 79.04C277.183 80.936 277.471 82.586 278.047 83.99C278.623 85.382 279.487 86.468 280.639 87.248C281.803 88.028 283.255 88.43 284.995 88.454Z" fill="white"/>
<path d="M226.737 92.54C224.145 92.54 221.925 91.976 220.077 90.848C218.229 89.708 216.807 88.124 215.811 86.096C214.827 84.068 214.335 81.716 214.335 79.04C214.335 76.364 214.827 74.012 215.811 71.984C216.807 69.956 218.229 68.378 220.077 67.25C221.925 66.11 224.145 65.54 226.737 65.54C229.725 65.54 232.215 66.29 234.207 67.79C236.199 69.278 237.597 71.288 238.401 73.82L234.027 75.026C233.523 73.334 232.665 72.014 231.453 71.066C230.241 70.106 228.669 69.626 226.737 69.626C224.997 69.626 223.545 70.016 222.381 70.796C221.229 71.576 220.359 72.674 219.771 74.09C219.195 75.494 218.901 77.144 218.889 79.04C218.889 80.936 219.177 82.592 219.753 84.008C220.341 85.412 221.217 86.504 222.381 87.284C223.545 88.064 224.997 88.454 226.737 88.454C228.669 88.454 230.241 87.974 231.453 87.014C232.665 86.054 233.523 84.734 234.027 83.054L238.401 84.26C237.597 86.792 236.199 88.808 234.207 90.308C232.215 91.796 229.725 92.54 226.737 92.54Z" fill="white"/>
<path d="M174.365 92.0001V66.0801H178.703V92.0001H174.365Z" fill="white"/>
<path d="M116.575 92.0001L125.359 78.8961L116.827 66.0801H122.137L128.041 75.2061L133.891 66.0801H139.237L130.705 78.8961L139.453 92.0001H134.143L128.041 82.5861L121.921 92.0001H116.575Z" fill="white"/>
<path d="M65.9961 92.0001V66.0801H82.7361V70.1481H70.3341V76.5381H80.5761V80.6061H70.3341V87.9321H82.7361V92.0001H65.9961Z" fill="white"/>
<path d="M3.51953 92.0001V66.0801H7.42553L16.3895 84.4401L25.3535 66.0801H29.2595V92.0001H25.2095V75.3861L17.2535 92.0001H15.5255L7.58753 75.3861V92.0001H3.51953Z" fill="white"/>
</svg>
