<svg width="24" height="25" viewBox="0 0 24 25" fill="none" xmlns="http://www.w3.org/2000/svg">
<path fill-rule="evenodd" clip-rule="evenodd" d="M16 3.55713H8C5.23858 3.55713 3 5.79571 3 8.55713V16.5571C3 19.3185 5.23858 21.5571 8 21.5571H16C18.7614 21.5571 21 19.3185 21 16.5571V8.55713C21 5.79571 18.7614 3.55713 16 3.55713ZM19.25 16.5571C19.2445 18.3497 17.7926 19.8016 16 19.8071H8C6.20735 19.8016 4.75549 18.3497 4.75 16.5571V8.55713C4.75549 6.76448 6.20735 5.31262 8 5.30713H16C17.7926 5.31262 19.2445 6.76448 19.25 8.55713V16.5571ZM16.75 8.80713C17.3023 8.80713 17.75 8.35941 17.75 7.80713C17.75 7.25485 17.3023 6.80713 16.75 6.80713C16.1977 6.80713 15.75 7.25485 15.75 7.80713C15.75 8.35941 16.1977 8.80713 16.75 8.80713ZM12 8.05713C9.51472 8.05713 7.5 10.0718 7.5 12.5571C7.5 15.0424 9.51472 17.0571 12 17.0571C14.4853 17.0571 16.5 15.0424 16.5 12.5571C16.5027 11.3628 16.0294 10.2167 15.1849 9.37221C14.3404 8.52772 13.1943 8.05447 12 8.05713ZM9.25 12.5571C9.25 14.0759 10.4812 15.3071 12 15.3071C13.5188 15.3071 14.75 14.0759 14.75 12.5571C14.75 11.0383 13.5188 9.80713 12 9.80713C10.4812 9.80713 9.25 11.0383 9.25 12.5571Z" fill="white"/>
</svg>
