<svg width="24" height="25" viewBox="0 0 24 25" fill="none" xmlns="http://www.w3.org/2000/svg">
<path fill-rule="evenodd" clip-rule="evenodd" d="M4.5 3.55713C3.67157 3.55713 3 4.2287 3 5.05713V20.0571C3 20.8855 3.67157 21.5571 4.5 21.5571H19.5C20.3284 21.5571 21 20.8855 21 20.0571V5.05713C21 4.2287 20.3284 3.55713 19.5 3.55713H4.5ZM8.52076 7.55985C8.52639 8.5161 7.81061 9.10532 6.96123 9.1011C6.16107 9.09688 5.46357 8.45985 5.46779 7.56126C5.47201 6.7161 6.13998 6.03688 7.00764 6.05657C7.88795 6.07626 8.52639 6.72173 8.52076 7.55985ZM12.2797 10.3189H9.75971H9.7583V18.8787H12.4217V18.679C12.4217 18.2991 12.4214 17.9191 12.4211 17.539C12.4203 16.5252 12.4194 15.5103 12.4246 14.4968C12.426 14.2507 12.4372 13.9948 12.5005 13.7599C12.7381 12.8824 13.5271 12.3157 14.4074 12.455C14.9727 12.5435 15.3467 12.8712 15.5042 13.4042C15.6013 13.7374 15.6449 14.096 15.6491 14.4434C15.6605 15.491 15.6589 16.5386 15.6573 17.5863C15.6567 17.9561 15.6561 18.3261 15.6561 18.6959V18.8773H18.328V18.672C18.328 18.22 18.3278 17.7681 18.3275 17.3162C18.327 16.1867 18.3264 15.0572 18.3294 13.9273C18.3308 13.4168 18.276 12.9134 18.1508 12.4198C17.9638 11.6857 17.5771 11.0782 16.9485 10.6395C16.5027 10.3273 16.0133 10.1262 15.4663 10.1037C15.404 10.1011 15.3412 10.0977 15.2781 10.0943C14.9984 10.0792 14.7141 10.0639 14.4467 10.1178C13.6817 10.2711 13.0096 10.6212 12.5019 11.2385C12.4429 11.3093 12.3852 11.3812 12.2991 11.4885L12.2797 11.5128V10.3189ZM5.68164 18.8815H8.33242V10.3245H5.68164V18.8815Z" fill="white"/>
</svg>
