<svg width="24" height="25" viewBox="0 0 24 25" fill="none" xmlns="http://www.w3.org/2000/svg">
<path d="M21.5931 7.51746C21.4792 7.09486 21.2566 6.70946 20.9475 6.39963C20.6383 6.08979 20.2534 5.86632 19.8311 5.75146C18.2651 5.32146 12.0001 5.31446 12.0001 5.31446C12.0001 5.31446 5.73609 5.30746 4.16909 5.71846C3.74701 5.83861 3.36291 6.06524 3.05365 6.3766C2.7444 6.68795 2.52037 7.07358 2.40309 7.49646C1.99009 9.06246 1.98609 12.3105 1.98609 12.3105C1.98609 12.3105 1.98209 15.5745 2.39209 17.1245C2.62209 17.9815 3.29709 18.6585 4.15509 18.8895C5.73709 19.3195 11.9851 19.3265 11.9851 19.3265C11.9851 19.3265 18.2501 19.3335 19.8161 18.9235C20.2386 18.8088 20.6238 18.5858 20.9337 18.2766C21.2436 17.9674 21.4675 17.5827 21.5831 17.1605C21.9971 15.5955 22.0001 12.3485 22.0001 12.3485C22.0001 12.3485 22.0201 9.08346 21.5931 7.51746ZM9.99609 15.3195L10.0011 9.31946L15.2081 12.3245L9.99609 15.3195Z" fill="white"/>
</svg>
